<svg width="2839" height="1822" viewBox="0 0 2839 1822" fill="none" xmlns="http://www.w3.org/2000/svg">
<path d="M650.549 0.0894294H657.346C695.106 19.7249 713.986 41.626 713.986 65.7927L657.346 496.263C657.346 653.346 704.169 978.842 797.815 1472.75L911.096 1755.95C911.096 1775.59 895.237 1797.49 863.518 1821.66H820.471C790.263 1812.59 744.95 1719.7 684.533 1542.98C645.262 1401 605.991 1181.99 566.72 885.951H553.127C465.522 1145.74 403.595 1280.17 367.345 1289.23L331.095 1298.3C299.376 1298.3 260.105 1236.37 213.282 1112.51H197.423C179.297 1485.59 143.803 1672.13 90.9379 1672.13H84.141C35.8075 1672.13 9.37514 1634.36 4.84388 1558.84C42.6044 1413.84 61.4847 1262.8 61.4847 1105.72L0.31262 505.325V462.278C0.31262 404.882 20.7033 376.184 61.4847 376.184C120.391 376.184 172.501 491.731 217.813 722.826C284.272 932.774 325.053 1046.06 340.157 1062.67C374.897 1008.3 409.637 911.628 444.376 772.67C471.564 701.68 497.996 590.664 523.673 439.622L514.611 432.825L523.673 396.575V382.981C537.267 127.72 579.559 0.0894294 650.549 0.0894294ZM1179.73 380.715C1241.66 309.726 1308.12 274.231 1379.11 274.231C1450.1 274.231 1492.39 328.606 1505.98 437.356V444.153C1505.98 498.528 1475.02 617.096 1413.09 799.857L1519.58 777.201C1649.47 777.201 1724.99 860.274 1746.14 1026.42V1060.4C1746.14 1259.78 1620.78 1441.79 1370.05 1606.42C1288.48 1638.14 1229.58 1654 1193.33 1654C1070.98 1654 986.399 1583.01 939.576 1441.03C942.597 1424.42 961.477 1401 996.217 1370.8C1012.83 688.086 1027.18 346.731 1039.26 346.731C1064.94 321.054 1088.35 308.215 1109.5 308.215C1150.28 323.319 1170.67 347.486 1170.67 380.715H1179.73ZM1157.08 1003.76H1166.14C1289.99 769.649 1355.7 588.398 1363.25 460.013V407.903H1340.59C1308.87 407.903 1266.58 493.242 1213.72 663.919C1175.96 825.534 1157.08 938.816 1157.08 1003.76ZM1243.17 1144.23L1209.19 1157.83L1152.55 1153.3V1157.83L1143.48 1187.28V1422.91L1136.69 1506.73L1186.53 1520.33C1314.92 1520.33 1441.79 1423.66 1567.16 1230.33C1601.9 1144.23 1619.27 1073.24 1619.27 1017.36C1619.27 947.878 1586.04 913.139 1519.58 913.139H1510.51C1438.01 913.139 1348.9 990.17 1243.17 1144.23ZM2307.91 308.215L2364.55 290.09C2415.91 290.09 2441.58 358.059 2441.58 493.997L2511.82 1017.36L2520.88 1026.42L2781.43 931.264C2816.17 931.264 2835.05 957.696 2838.07 1010.56C2838.07 1049.83 2742.16 1097.41 2550.33 1153.3L2541.27 1157.83V1166.89C2541.27 1198.61 2591.11 1364 2690.8 1663.06V1667.59C2690.8 1696.29 2667.39 1720.46 2620.57 1740.09C2576.77 1740.09 2548.07 1687.98 2534.47 1583.77C2499.73 1508.24 2457.44 1383.63 2407.6 1209.94H2398.54C2200.67 1250.72 2101.74 1285.46 2101.74 1314.16C1992.99 1549.78 1910.67 1667.59 1854.78 1667.59C1823.07 1667.59 1804.19 1647.2 1798.14 1606.42C1798.14 1570.17 1838.17 1499.18 1918.22 1393.45L1954.47 1314.16H1897.83L1854.78 1323.22C1798.9 1309.62 1770.96 1280.93 1770.96 1237.12C1793.61 1184.26 1826.84 1157.83 1870.64 1157.83L1927.28 1180.48C2011.87 1180.48 2054.16 1149.52 2054.16 1087.59C2131.19 906.342 2215.78 646.549 2307.91 308.215ZM2328.3 720.56L2194.63 1123.84C2318.48 1099.68 2380.41 1076.26 2380.41 1053.61C2357.75 831.576 2340.38 720.56 2328.3 720.56Z" fill="#18181A"/>
</svg>
